<svg xmlns="http://www.w3.org/2000/svg" xmlns:xlink="http://www.w3.org/1999/xlink" width="500" zoomAndPan="magnify" viewBox="0 0 375 374.999991" height="500" preserveAspectRatio="xMidYMid meet" version="1.0"><defs><g/></defs><g fill="#000000" fill-opacity="1"><g transform="translate(37.213459, 167.648512)"><g><path d="M 35.109375 -16.765625 L 35.546875 -17.203125 L 34.15625 -19.5625 L 46.125 -32.0625 L 47.953125 -29.265625 L 48.125 -33.109375 L 65.59375 -51.53125 L 67.421875 -44.8125 L 64.984375 -42.53125 L 63.84375 -37.390625 L 50.828125 -23.9375 L 65.25 -37.8125 L 66.46875 -31.625 L 64.453125 -29.609375 L 65.765625 -30.828125 L 64.375 -24.8125 L 48.21875 -7.859375 L 65.5 -24.1875 L 65.5 -17.5625 L 47.859375 -0.34375 L 44.890625 -4.359375 L 42.09375 -7.953125 L 38.171875 -11.796875 L 38.78125 -12.40625 Z M 5.9375 -39.484375 L 25.859375 -59.3125 L 29.609375 -56.515625 L 22.359375 -49.265625 L 28.90625 -55.546875 L 30.5625 -50.390625 L 6.71875 -27.59375 L 6.203125 -33.71875 L 7.078125 -34.59375 Z M 6.46875 -14.234375 L 6.90625 -14.59375 L 8.03125 -21.140625 L 34.5 -47.421875 L 37.125 -44.109375 L 24.625 -31.53125 L 24.453125 -31.875 L 24.015625 -32.140625 L 12.484375 -19.828125 L 24.625 -31 L 25.0625 -25.0625 L 6.984375 -6.984375 Z M 61.578125 -61.046875 L 65.5 -61.140625 L 66.296875 -58.4375 L 65.421875 -57.640625 L 64.453125 -52.40625 L 47.953125 -34.59375 L 47.34375 -41.046875 L 48.21875 -41.921875 L 47.859375 -48.390625 L 48.03125 -48.5625 L 48.03125 -53.890625 L 54.9375 -61.140625 L 60.53125 -61.484375 L 49.875 -50.21875 Z M 5.9375 -5.859375 L 24.375 -24.109375 L 23.328125 -18.609375 L 11.4375 -5.15625 L 24.71875 -17.03125 L 24.890625 -11.359375 L 13.625 0 L 7.78125 -0.953125 L 7.078125 -0.171875 Z M 49.09375 0.609375 L 65.5 -17.375 L 66.203125 -11.359375 L 65.25 -10.390625 L 65.25 -4.28125 L 61.046875 -0.265625 L 54.9375 -0.703125 L 54.328125 -0.09375 Z M 7.6875 -26.90625 L 31.625 -51.359375 L 33.015625 -49.09375 L 6.984375 -20.703125 Z M 20.96875 -61.140625 L 24.453125 -61.140625 L 25.15625 -59.21875 L 6.984375 -41.046875 L 7.078125 -43.765625 L 3.75 -43.84375 Z M 0.34375 -43.671875 L 0.4375 -46.984375 L 13.890625 -61.140625 L 20.96875 -61.671875 L 2.796875 -43.671875 Z M 0.171875 -54.59375 L 0.703125 -55.03125 L 0.53125 -61.140625 L 6.46875 -60.875 L 4.71875 -59.046875 L 6.984375 -61.234375 L 12.671875 -60.265625 L 0.53125 -48.125 Z M 25.25 -31.96875 L 37.46875 -43.765625 L 39.828125 -39.828125 L 27.6875 -27.59375 Z M 30.65625 -22.890625 L 43.328125 -36.078125 L 46.375 -33.109375 L 33.28125 -20 Z M 28.296875 -27.25 L 40.4375 -39.921875 L 42.53125 -36.859375 L 30.5625 -23.9375 Z M 14.328125 0.265625 L 24.453125 -10.5625 L 24.453125 -4.28125 L 20.265625 -0.171875 Z M 48.296875 -54.765625 L 48.21875 -61.234375 L 54.234375 -61.3125 Z M 65.5 0.09375 L 61.671875 0 L 65.5 -3.75 Z M 24.546875 -0.09375 L 20.78125 0.09375 L 24.546875 -3.671875 Z M 24.546875 -0.09375 "/></g></g></g><g fill="#000000" fill-opacity="1"><g transform="translate(109.362381, 167.648512)"><g><path d="M 6.46875 1.3125 L 13.1875 -5.328125 L 7.421875 0.265625 L -0.4375 -0.09375 L 3.140625 -3.5 L 9.515625 -11.53125 L 38.515625 -43.0625 L 35.546875 -33.1875 L 34.5 -32.234375 L 32.234375 -26.203125 L 34.5 -26.203125 L 34.40625 -26.109375 L 41.65625 -27.078125 L 36.953125 -22.359375 L 40.96875 -26.03125 L 45.59375 -26.203125 L 43.765625 -30.140625 L 44.015625 -30.390625 L 42.015625 -34.0625 L 55.203125 -47.171875 L 57.734375 -43.0625 L 53.890625 -39.390625 L 57.203125 -42.453125 L 60 -38.25 L 58.265625 -36.59375 L 59.5625 -37.734375 L 60 -33.625 L 40.4375 -13.1875 L 61.484375 -33.1875 L 63.5 -28.46875 L 61.921875 -26.90625 L 63.765625 -28.65625 L 65.6875 -23.84375 L 65.859375 -24.015625 L 67 -20.09375 L 54.671875 -6.640625 L 53.71875 -8.734375 L 49.953125 -9 L 64.015625 -22.265625 L 49.875 -9 L 43.5 -9 L 43.234375 -8.734375 L 36.859375 -9.515625 L 36.328125 -9 L 31 -10.046875 L 29.609375 -8.734375 L 23.75 -8.5625 L 20.265625 0.09375 L 15.109375 -0.703125 L 14.328125 0.09375 Z M 21.3125 -43.671875 L 17.203125 -43.234375 L 35.203125 -60.96875 L 42.625 -61.921875 L 42.015625 -61.3125 L 46.90625 -59.21875 L 48.5625 -60.875 L 49.703125 -55.203125 L 50.921875 -56.515625 L 53.1875 -52.3125 L 45.25 -44.625 L 53.015625 -51.796875 L 55.109375 -47.78125 L 42.453125 -34.9375 L 40.09375 -39.828125 L 40.53125 -40.265625 L 39.21875 -43.671875 L 39.125 -43.671875 L 45.765625 -50.921875 L 6.90625 -13.71875 L 10.5625 -22.625 L 45.5 -57.828125 L 12.484375 -26.296875 L 17.640625 -37.734375 L 18.953125 -39.046875 Z M 14.9375 -54.328125 L 21.75 -61.40625 L 27.25 -61.921875 L 16.15625 -49.875 L 28.03125 -61.3125 L 34.671875 -60.53125 L 16.9375 -43.671875 L 14.765625 -43.765625 L 14.234375 -48.03125 L 14.765625 -48.5625 Z M 55.375 -6.71875 L 68.046875 -19.21875 L 69.34375 -15.015625 L 57.03125 -2.1875 Z M 57.90625 0 L 57.90625 -1.140625 L 70.21875 -14.765625 L 72.578125 -10.5625 L 61.671875 -0.09375 Z M 62.28125 0.4375 L 72.5 -10.21875 L 74.59375 -6.203125 L 68.21875 -0.09375 Z M 69.171875 -0.265625 L 74.671875 -5.59375 L 76.421875 -1.21875 L 75.46875 0.171875 Z M 14.5 -55.109375 L 14.40625 -60.875 L 21.046875 -61.140625 Z M 77.03125 0 L 75.8125 0 L 76.6875 -0.78125 Z M 38.78125 -43.84375 L 38.515625 -43.0625 L 39.125 -43.671875 Z M 38.78125 -43.84375 "/></g></g></g><g fill="#000000" fill-opacity="1"><g transform="translate(189.634575, 167.648512)"><g><path d="M 35.109375 -16.765625 L 35.546875 -17.203125 L 34.15625 -19.5625 L 46.125 -32.0625 L 47.953125 -29.265625 L 48.125 -33.109375 L 65.59375 -51.53125 L 67.421875 -44.8125 L 64.984375 -42.53125 L 63.84375 -37.390625 L 50.828125 -23.9375 L 65.25 -37.8125 L 66.46875 -31.625 L 64.453125 -29.609375 L 65.765625 -30.828125 L 64.375 -24.8125 L 48.21875 -7.859375 L 65.5 -24.1875 L 65.5 -17.5625 L 47.859375 -0.34375 L 44.890625 -4.359375 L 42.09375 -7.953125 L 38.171875 -11.796875 L 38.78125 -12.40625 Z M 5.9375 -39.484375 L 25.859375 -59.3125 L 29.609375 -56.515625 L 22.359375 -49.265625 L 28.90625 -55.546875 L 30.5625 -50.390625 L 6.71875 -27.59375 L 6.203125 -33.71875 L 7.078125 -34.59375 Z M 6.46875 -14.234375 L 6.90625 -14.59375 L 8.03125 -21.140625 L 34.5 -47.421875 L 37.125 -44.109375 L 24.625 -31.53125 L 24.453125 -31.875 L 24.015625 -32.140625 L 12.484375 -19.828125 L 24.625 -31 L 25.0625 -25.0625 L 6.984375 -6.984375 Z M 61.578125 -61.046875 L 65.5 -61.140625 L 66.296875 -58.4375 L 65.421875 -57.640625 L 64.453125 -52.40625 L 47.953125 -34.59375 L 47.34375 -41.046875 L 48.21875 -41.921875 L 47.859375 -48.390625 L 48.03125 -48.5625 L 48.03125 -53.890625 L 54.9375 -61.140625 L 60.53125 -61.484375 L 49.875 -50.21875 Z M 5.9375 -5.859375 L 24.375 -24.109375 L 23.328125 -18.609375 L 11.4375 -5.15625 L 24.71875 -17.03125 L 24.890625 -11.359375 L 13.625 0 L 7.78125 -0.953125 L 7.078125 -0.171875 Z M 49.09375 0.609375 L 65.5 -17.375 L 66.203125 -11.359375 L 65.25 -10.390625 L 65.25 -4.28125 L 61.046875 -0.265625 L 54.9375 -0.703125 L 54.328125 -0.09375 Z M 7.6875 -26.90625 L 31.625 -51.359375 L 33.015625 -49.09375 L 6.984375 -20.703125 Z M 20.96875 -61.140625 L 24.453125 -61.140625 L 25.15625 -59.21875 L 6.984375 -41.046875 L 7.078125 -43.765625 L 3.75 -43.84375 Z M 0.34375 -43.671875 L 0.4375 -46.984375 L 13.890625 -61.140625 L 20.96875 -61.671875 L 2.796875 -43.671875 Z M 0.171875 -54.59375 L 0.703125 -55.03125 L 0.53125 -61.140625 L 6.46875 -60.875 L 4.71875 -59.046875 L 6.984375 -61.234375 L 12.671875 -60.265625 L 0.53125 -48.125 Z M 25.25 -31.96875 L 37.46875 -43.765625 L 39.828125 -39.828125 L 27.6875 -27.59375 Z M 30.65625 -22.890625 L 43.328125 -36.078125 L 46.375 -33.109375 L 33.28125 -20 Z M 28.296875 -27.25 L 40.4375 -39.921875 L 42.53125 -36.859375 L 30.5625 -23.9375 Z M 14.328125 0.265625 L 24.453125 -10.5625 L 24.453125 -4.28125 L 20.265625 -0.171875 Z M 48.296875 -54.765625 L 48.21875 -61.234375 L 54.234375 -61.3125 Z M 65.5 0.09375 L 61.671875 0 L 65.5 -3.75 Z M 24.546875 -0.09375 L 20.78125 0.09375 L 24.546875 -3.671875 Z M 24.546875 -0.09375 "/></g></g></g><g fill="#000000" fill-opacity="1"><g transform="translate(261.783486, 167.648512)"><g><path d="M 4.109375 -26.375 L 4.28125 -26.546875 L 5.5 -33.1875 L 33.546875 -60.875 L 39.65625 -61.3125 L 22.1875 -43.671875 L 21.828125 -43.671875 L 21.40625 -44.109375 L 10.125 -32.0625 L 21.578125 -42.796875 L 22.625 -36.15625 L 21.65625 -35.203125 L 21.828125 -29.078125 L 22.796875 -22.96875 L 21.75 -21.921875 L 21.828125 -17.46875 L 23.0625 -16.59375 L 9.171875 -3.75 L 5.328125 -5.765625 L 15.640625 -16.15625 L 6.03125 -7.078125 L 4.453125 -8.640625 L 4.109375 -12.84375 L 4.28125 -13.015625 L 5.0625 -18.953125 L 14.234375 -28.21875 L 4.625 -19.125 L 4.109375 -25.59375 Z M 54.15625 -17.46875 L 54.234375 -19.828125 L 71.703125 -38.34375 L 73.71875 -31.4375 L 71.09375 -29 L 69.96875 -24.1875 L 57.390625 -11.09375 L 71.359375 -24.546875 L 72.328125 -18.421875 L 53.453125 0.265625 L 46.734375 0 L 46.546875 0.171875 L 40.609375 -0.953125 L 39.828125 -0.171875 L 34.15625 -0.09375 L 51.015625 -17.5625 Z M 21.828125 -42.796875 L 40.265625 -61.046875 L 47.421875 -61.671875 L 46.03125 -60.265625 L 46.984375 -61.140625 L 52.578125 -61.40625 L 40.703125 -49.09375 L 54.15625 -60.96875 L 59.125 -61.140625 L 42.53125 -43.9375 L 36.328125 -44.546875 L 35.640625 -43.84375 L 29.953125 -44.28125 L 29.265625 -43.578125 Z M 10.390625 -4.28125 L 24.015625 -17.296875 L 30.390625 -18.421875 L 15.203125 -2.875 L 30.5625 -17.46875 L 36.765625 -17.03125 L 19.390625 0 L 13.015625 -0.609375 L 12.84375 -0.4375 Z M 53.71875 -33.796875 L 71.625 -51.703125 L 71.09375 -46.546875 L 57.390625 -31.875 L 71.796875 -45.15625 L 70.828125 -39.125 L 54.234375 -21.484375 L 53.109375 -27.953125 L 53.890625 -28.65625 Z M 54.15625 -43.671875 L 49 -43.0625 L 49.4375 -43.5 L 43.765625 -44.28125 L 60.609375 -61.140625 L 62.890625 -61.234375 L 65.5 -58.953125 L 65.15625 -58.6875 L 68.125 -56.515625 L 54.15625 -41.65625 Z M 3.84375 -45.6875 L 20.09375 -61.40625 L 25.328125 -59.921875 L 4.109375 -39.5625 Z M 4.984375 -38.875 L 26.640625 -60.96875 L 31.625 -62.359375 L 4.359375 -32.671875 Z M 20.78125 -0.09375 L 37.46875 -17.296875 L 44.71875 -18.078125 L 26.109375 0 Z M 27.25 -0.53125 L 44.203125 -17.296875 L 49.265625 -16.859375 L 33.015625 -0.265625 Z M 68.5625 -55.546875 L 70.921875 -52.9375 L 54.15625 -34.765625 L 55.109375 -42.015625 Z M 53.71875 0.53125 L 71.703125 -17.8125 L 71.1875 -12.046875 L 60.265625 -0.265625 Z M 4.546875 -52.140625 L 13.09375 -61.3125 L 19.125 -61.75 L 4.359375 -46.46875 Z M 62.890625 0 L 61.234375 0.4375 L 71.625 -11 L 71.359375 -8.390625 Z M 62.890625 0 "/></g></g></g><g fill="#000000" fill-opacity="1"><g transform="translate(45.172729, 238.079099)"><g><path d="M 58.390625 -37.140625 L 63.046875 -37.140625 L 63.046875 -25.453125 C 63.046875 -25.398438 63.046875 -25.332031 63.046875 -25.25 C 63.046875 -25.175781 63.046875 -25.085938 63.046875 -24.984375 L 58.765625 -24.984375 C 58.765625 -23.304688 58.691406 -21.726562 58.546875 -20.25 L 61.984375 -20.25 C 61.722656 -18.007812 61.414062 -15.972656 61.0625 -14.140625 C 60.851562 -13.421875 60.632812 -12.703125 60.40625 -11.984375 C 60.175781 -11.273438 59.910156 -10.617188 59.609375 -10.015625 L 55.40625 -10.015625 C 54.789062 -8.535156 54.023438 -7.257812 53.109375 -6.1875 C 53.003906 -5.988281 52.875 -5.8125 52.71875 -5.65625 C 52.570312 -5.5 52.445312 -5.367188 52.34375 -5.265625 L 55.9375 -5.265625 C 55.425781 -4.710938 54.84375 -4.179688 54.1875 -3.671875 L 47.15625 -3.671875 C 45.875 -2.703125 44.570312 -1.960938 43.25 -1.453125 C 40.601562 -0.429688 37.5 0.078125 33.9375 0.078125 L 7.796875 0.078125 C 5.242188 0.078125 3.332031 -1.015625 2.0625 -3.203125 C 2.007812 -3.304688 1.96875 -3.394531 1.9375 -3.46875 C 1.914062 -3.550781 1.878906 -3.617188 1.828125 -3.671875 L 8.9375 -3.671875 C 8.789062 -3.921875 8.675781 -4.171875 8.59375 -4.421875 C 8.519531 -4.679688 8.429688 -4.960938 8.328125 -5.265625 L 4.734375 -5.265625 C 4.734375 -5.316406 4.71875 -5.367188 4.6875 -5.421875 C 4.664062 -5.472656 4.65625 -5.523438 4.65625 -5.578125 L 4.65625 -10.015625 L 8.859375 -10.015625 L 8.859375 -20.25 L 5.5 -20.25 L 5.5 -24.984375 L 9.703125 -24.984375 L 9.78125 -37.140625 L 5.125 -37.140625 L 5.125 -38.75 L 8.78125 -38.75 L 8.78125 -46.46875 L 1.828125 -46.46875 L 1.828125 -51.28125 L 9.703125 -51.28125 L 9.78125 -57.78125 C 9.78125 -57.875 9.804688 -58 9.859375 -58.15625 C 9.910156 -58.3125 9.960938 -58.441406 10.015625 -58.546875 L 2.296875 -58.546875 C 2.347656 -58.742188 2.421875 -58.929688 2.515625 -59.109375 C 2.617188 -59.285156 2.695312 -59.476562 2.75 -59.6875 C 2.851562 -59.789062 2.929688 -59.878906 2.984375 -59.953125 C 3.035156 -60.023438 3.085938 -60.085938 3.140625 -60.140625 L 10.703125 -60.140625 C 11.867188 -61.828125 13.523438 -62.742188 15.671875 -62.890625 L 15.671875 -62.96875 L 42.34375 -62.96875 C 45.851562 -62.96875 48.929688 -62.457031 51.578125 -61.4375 C 52.546875 -61.03125 53.414062 -60.597656 54.1875 -60.140625 L 46.625 -60.140625 C 47.28125 -59.734375 47.988281 -59.203125 48.75 -58.546875 L 56.46875 -58.546875 C 56.78125 -58.285156 57.078125 -58 57.359375 -57.6875 C 57.640625 -57.382812 57.90625 -57.082031 58.15625 -56.78125 C 59.425781 -55.195312 60.394531 -53.363281 61.0625 -51.28125 L 53.1875 -51.28125 C 53.34375 -50.875 53.484375 -50.453125 53.609375 -50.015625 C 53.734375 -49.585938 53.847656 -49.164062 53.953125 -48.75 C 54.054688 -48.394531 54.144531 -48.023438 54.21875 -47.640625 C 54.300781 -47.265625 54.363281 -46.875 54.40625 -46.46875 L 61.359375 -46.46875 C 61.722656 -44.175781 61.953125 -41.601562 62.046875 -38.75 L 58.3125 -38.75 C 58.363281 -38.539062 58.390625 -38.332031 58.390625 -38.125 C 58.390625 -37.925781 58.390625 -37.703125 58.390625 -37.453125 Z M 51.734375 -24.984375 L 51.734375 -37.140625 L 32.9375 -37.140625 L 32.9375 -38.59375 C 32.9375 -38.644531 32.9375 -38.671875 32.9375 -38.671875 C 32.9375 -38.671875 32.9375 -38.695312 32.9375 -38.75 L 50.75 -38.75 C 50.75 -39.96875 50.707031 -41.113281 50.625 -42.1875 C 50.550781 -43.257812 50.410156 -44.203125 50.203125 -45.015625 C 50.160156 -45.265625 50.113281 -45.515625 50.0625 -45.765625 C 50.007812 -46.023438 49.929688 -46.257812 49.828125 -46.46875 L 42.875 -46.46875 C 42.519531 -47.53125 42.113281 -48.34375 41.65625 -48.90625 C 41.039062 -49.820312 40.097656 -50.507812 38.828125 -50.96875 C 38.671875 -51.019531 38.515625 -51.070312 38.359375 -51.125 C 38.210938 -51.175781 38.035156 -51.226562 37.828125 -51.28125 L 45.78125 -51.28125 C 45.269531 -51.382812 44.71875 -51.472656 44.125 -51.546875 C 43.539062 -51.617188 42.894531 -51.65625 42.1875 -51.65625 L 21.015625 -51.65625 C 21.015625 -51.65625 20.960938 -51.53125 20.859375 -51.28125 L 12.984375 -51.28125 C 12.984375 -51.226562 12.984375 -51.203125 12.984375 -51.203125 L 12.984375 -46.46875 L 19.953125 -46.46875 L 19.953125 -38.75 L 16.28125 -38.75 L 16.28125 -37.140625 L 20.9375 -37.140625 L 20.9375 -24.984375 L 16.65625 -24.984375 L 16.65625 -20.25 L 20.09375 -20.25 L 20.09375 -16.4375 L 35.53125 -16.4375 L 35.53125 -13.90625 L 20.09375 -13.90625 L 20.09375 -11.6875 C 20.09375 -11.539062 20.101562 -11.441406 20.125 -11.390625 C 20.15625 -11.335938 20.171875 -11.3125 20.171875 -11.3125 L 41.421875 -11.3125 C 42.285156 -11.3125 43.097656 -11.359375 43.859375 -11.453125 C 44.628906 -11.554688 45.316406 -11.710938 45.921875 -11.921875 C 47.097656 -12.378906 48.039062 -13.066406 48.75 -13.984375 C 49.519531 -15.003906 50.054688 -16.328125 50.359375 -17.953125 C 50.460938 -18.316406 50.523438 -18.6875 50.546875 -19.0625 C 50.578125 -19.445312 50.617188 -19.84375 50.671875 -20.25 L 47.234375 -20.25 C 47.378906 -21.476562 47.453125 -22.828125 47.453125 -24.296875 L 47.453125 -24.984375 Z M 25.75 -24.609375 L 25.75 -23.84375 L 42.484375 -23.84375 L 42.484375 -24.609375 Z M 18.71875 -31.875 L 18.71875 -31.03125 L 35.390625 -31.03125 L 35.390625 -31.875 Z M 20.484375 -49.828125 L 20.484375 -48.984375 L 31.109375 -48.984375 L 31.109375 -49.828125 Z M 20.484375 -49.828125 "/></g></g></g><g fill="#000000" fill-opacity="1"><g transform="translate(116.548546, 238.079099)"><g><path d="M 64.046875 -39.515625 L 58.390625 -39.515625 L 58.390625 -34 L 62.671875 -34 L 62.671875 -25.59375 L 59.84375 -25.59375 L 59.84375 -23.921875 C 59.84375 -23.867188 59.84375 -23.828125 59.84375 -23.796875 C 59.84375 -23.773438 59.84375 -23.738281 59.84375 -23.6875 L 62.671875 -23.6875 C 62.671875 -22.71875 62.644531 -21.773438 62.59375 -20.859375 C 62.539062 -19.941406 62.488281 -19.050781 62.4375 -18.1875 L 58.15625 -18.1875 C 58.101562 -17.21875 58.015625 -16.300781 57.890625 -15.4375 C 57.765625 -14.570312 57.597656 -13.753906 57.390625 -12.984375 C 57.390625 -12.890625 57.363281 -12.816406 57.3125 -12.765625 L 60.140625 -12.765625 C 60.140625 -12.765625 60.140625 -12.75 60.140625 -12.71875 C 60.140625 -12.695312 60.140625 -12.6875 60.140625 -12.6875 L 62.96875 -12.6875 C 62.769531 -11.664062 62.488281 -10.707031 62.125 -9.8125 C 61.769531 -8.925781 61.390625 -8.078125 60.984375 -7.265625 L 56.703125 -7.265625 C 56.347656 -6.597656 55.96875 -6.007812 55.5625 -5.5 C 54.332031 -3.96875 52.753906 -2.71875 50.828125 -1.75 L 55.03125 -1.75 C 54.820312 -1.707031 54.628906 -1.632812 54.453125 -1.53125 C 54.273438 -1.425781 54.054688 -1.320312 53.796875 -1.21875 C 51.503906 -0.40625 48.628906 0 45.171875 0 L 27.96875 0 C 24.507812 0 21.628906 -0.40625 19.328125 -1.21875 C 19.128906 -1.320312 18.925781 -1.425781 18.71875 -1.53125 C 18.519531 -1.632812 18.316406 -1.707031 18.109375 -1.75 L 13.90625 -1.75 C 11.96875 -2.71875 10.390625 -3.96875 9.171875 -5.5 C 8.765625 -6.007812 8.382812 -6.597656 8.03125 -7.265625 L 12.234375 -7.265625 C 11.359375 -8.890625 10.671875 -10.695312 10.171875 -12.6875 L 7.34375 -12.6875 C 7.34375 -12.6875 7.34375 -12.695312 7.34375 -12.71875 C 7.34375 -12.75 7.34375 -12.765625 7.34375 -12.765625 L 4.515625 -12.765625 C 4.515625 -12.867188 4.488281 -12.941406 4.4375 -12.984375 C 4.28125 -13.753906 4.140625 -14.570312 4.015625 -15.4375 C 3.890625 -16.300781 3.773438 -17.21875 3.671875 -18.1875 L 7.875 -18.1875 C 7.820312 -19.050781 7.769531 -19.941406 7.71875 -20.859375 C 7.664062 -21.773438 7.640625 -22.71875 7.640625 -23.6875 L 4.890625 -23.6875 C 4.835938 -23.738281 4.8125 -23.816406 4.8125 -23.921875 L 4.8125 -25.59375 L 7.640625 -25.59375 L 7.640625 -34 L 3.4375 -34 L 3.4375 -39.515625 L 9.09375 -39.515625 L 9.09375 -50.359375 L 3.4375 -50.359375 L 3.4375 -52.203125 L 7.640625 -52.203125 L 7.640625 -56.46875 L 3.4375 -56.46875 L 3.4375 -60.375 C 3.4375 -61.539062 3.71875 -62.265625 4.28125 -62.546875 C 4.84375 -62.828125 5.300781 -62.96875 5.65625 -62.96875 L 12.609375 -62.96875 C 12.960938 -62.96875 13.40625 -62.828125 13.9375 -62.546875 C 14.476562 -62.265625 14.75 -61.539062 14.75 -60.375 L 14.75 -56.46875 L 19.03125 -56.46875 L 19.03125 -52.203125 L 32.9375 -52.203125 L 32.9375 -50.359375 L 20.40625 -50.359375 L 20.40625 -39.515625 L 14.75 -39.515625 L 14.75 -34 L 19.03125 -34 L 19.03125 -25.59375 L 24.078125 -25.59375 L 24.078125 -23.6875 L 19.03125 -23.6875 L 19.03125 -22.703125 C 19.03125 -21.015625 19.109375 -19.507812 19.265625 -18.1875 L 14.984375 -18.1875 C 15.035156 -17.976562 15.070312 -17.769531 15.09375 -17.5625 C 15.113281 -17.363281 15.148438 -17.164062 15.203125 -16.96875 C 15.304688 -16.25 15.472656 -15.597656 15.703125 -15.015625 C 15.929688 -14.429688 16.175781 -13.9375 16.4375 -13.53125 C 16.632812 -13.21875 16.882812 -12.960938 17.1875 -12.765625 L 20.015625 -12.765625 C 20.015625 -12.765625 20.015625 -12.75 20.015625 -12.71875 C 20.015625 -12.695312 20.039062 -12.6875 20.09375 -12.6875 L 22.921875 -12.6875 C 23.234375 -12.382812 23.71875 -12.101562 24.375 -11.84375 C 24.882812 -11.6875 25.46875 -11.554688 26.125 -11.453125 C 26.789062 -11.359375 27.535156 -11.3125 28.359375 -11.3125 L 44.859375 -11.3125 C 45.671875 -11.3125 46.40625 -11.359375 47.0625 -11.453125 C 47.726562 -11.554688 48.316406 -11.6875 48.828125 -11.84375 C 49.085938 -11.945312 49.34375 -12.0625 49.59375 -12.1875 C 49.851562 -12.3125 50.082031 -12.476562 50.28125 -12.6875 L 47.453125 -12.6875 C 47.503906 -12.6875 47.53125 -12.695312 47.53125 -12.71875 C 47.53125 -12.75 47.53125 -12.765625 47.53125 -12.765625 L 44.703125 -12.765625 C 45.015625 -12.960938 45.269531 -13.21875 45.46875 -13.53125 C 45.726562 -13.9375 45.972656 -14.429688 46.203125 -15.015625 C 46.429688 -15.597656 46.59375 -16.25 46.6875 -16.96875 C 46.738281 -17.164062 46.773438 -17.363281 46.796875 -17.5625 C 46.828125 -17.769531 46.84375 -17.976562 46.84375 -18.1875 L 51.125 -18.1875 C 51.175781 -18.851562 51.210938 -19.550781 51.234375 -20.28125 C 51.265625 -21.019531 51.28125 -21.828125 51.28125 -22.703125 L 51.28125 -23.6875 L 48.453125 -23.6875 L 48.453125 -25.59375 L 51.28125 -25.59375 L 51.28125 -34 L 47.078125 -34 L 47.078125 -39.515625 L 52.734375 -39.515625 L 52.734375 -50.359375 L 47.078125 -50.359375 L 47.078125 -52.203125 L 51.28125 -52.203125 L 51.28125 -56.46875 L 47.078125 -56.46875 L 47.078125 -60.375 C 47.078125 -61.539062 47.351562 -62.265625 47.90625 -62.546875 C 48.46875 -62.828125 48.90625 -62.96875 49.21875 -62.96875 L 56.25 -62.96875 C 56.601562 -62.96875 57.046875 -62.828125 57.578125 -62.546875 C 58.117188 -62.265625 58.390625 -61.539062 58.390625 -60.375 L 58.390625 -56.46875 L 62.671875 -56.46875 L 62.671875 -52.203125 L 58.390625 -52.203125 L 58.390625 -50.359375 L 64.046875 -50.359375 Z M 32.859375 -33.9375 L 32.859375 -35.921875 L 21.78125 -35.921875 L 21.78125 -33.9375 Z M 45.3125 -20.171875 L 45.3125 -21.703125 L 32.703125 -21.703125 L 32.703125 -20.171875 Z M 45.3125 -42.1875 L 45.3125 -44.703125 L 31.109375 -44.703125 L 31.109375 -42.1875 Z M 45.3125 -42.1875 "/></g></g></g><g fill="#000000" fill-opacity="1"><g transform="translate(189.529169, 238.079099)"><g><path d="M 66.71875 -50.140625 L 58.3125 -50.140625 L 58.3125 -44.625 L 63.578125 -44.625 L 63.578125 -30.5 L 66.640625 -30.5 L 66.640625 -28.65625 L 60.21875 -28.65625 L 60.21875 -19.640625 L 57.921875 -19.640625 L 57.921875 -14.140625 L 65.109375 -14.140625 L 65.109375 -9.78125 C 65.109375 -9.019531 65.082031 -8.296875 65.03125 -7.609375 C 64.976562 -6.921875 64.90625 -6.296875 64.8125 -5.734375 L 58.609375 -5.734375 C 58.566406 -5.378906 58.492188 -5.046875 58.390625 -4.734375 C 58.285156 -4.429688 58.179688 -4.148438 58.078125 -3.890625 L 58.921875 -3.890625 C 58.816406 -3.535156 58.703125 -3.21875 58.578125 -2.9375 C 58.453125 -2.65625 58.285156 -2.390625 58.078125 -2.140625 C 57.003906 -0.660156 55.347656 0.078125 53.109375 0.078125 L 47.53125 0.078125 C 46.507812 0.078125 45.644531 0 44.9375 -0.15625 C 44.582031 -0.257812 44.222656 -0.375 43.859375 -0.5 C 43.503906 -0.625 43.175781 -0.789062 42.875 -1 C 42.257812 -1.351562 41.695312 -1.910156 41.1875 -2.671875 C 41.082031 -2.828125 40.953125 -3.019531 40.796875 -3.25 C 40.648438 -3.476562 40.5 -3.691406 40.34375 -3.890625 L 36.078125 -3.890625 C 35.921875 -4.148438 35.753906 -4.40625 35.578125 -4.65625 C 35.398438 -4.914062 35.207031 -5.195312 35 -5.5 L 34.84375 -5.734375 L 44.703125 -5.734375 L 39.96875 -14.140625 L 32.78125 -14.140625 L 29.734375 -19.640625 L 32.015625 -19.640625 L 26.984375 -28.65625 L 31.9375 -28.65625 L 30.875 -30.5 L 29.265625 -30.5 L 21.328125 -44.625 L 18.578125 -44.625 L 18.578125 -30.5 L 24.15625 -30.5 L 24.15625 -28.65625 L 15.203125 -28.65625 L 15.203125 -19.640625 L 19.484375 -19.640625 L 19.484375 -5.734375 L 14.140625 -5.734375 L 14.140625 -3.890625 L 20.328125 -3.890625 L 20.328125 -2.59375 C 20.328125 -1.425781 20.046875 -0.6875 19.484375 -0.375 C 18.921875 -0.0703125 18.488281 0.078125 18.1875 0.078125 L 11.390625 0.078125 C 11.035156 0.078125 10.578125 -0.0703125 10.015625 -0.375 C 9.453125 -0.6875 9.171875 -1.425781 9.171875 -2.59375 L 9.171875 -3.890625 L 2.984375 -3.890625 L 2.984375 -5.734375 L 8.328125 -5.734375 L 8.328125 -14.140625 L 1.53125 -14.140625 L 1.53125 -19.640625 L 4.046875 -19.640625 L 4.046875 -28.65625 L 2.59375 -28.65625 L 2.59375 -30.5 L 7.40625 -30.5 L 7.40625 -44.625 L 2.140625 -44.625 L 2.140625 -50.140625 L 6.875 -50.140625 L 6.875 -53.109375 C 6.875 -53.265625 6.875 -53.40625 6.875 -53.53125 C 6.875 -53.65625 6.875 -53.796875 6.875 -53.953125 L 2.515625 -53.953125 C 2.566406 -55.128906 2.65625 -56.175781 2.78125 -57.09375 C 2.914062 -58.007812 3.109375 -58.796875 3.359375 -59.453125 L 9.015625 -59.453125 C 9.273438 -60.066406 9.53125 -60.523438 9.78125 -60.828125 C 10.90625 -62.253906 12.5625 -62.96875 14.75 -62.96875 L 20.40625 -62.96875 C 20.96875 -62.96875 21.476562 -62.953125 21.9375 -62.921875 C 22.394531 -62.898438 22.800781 -62.863281 23.15625 -62.8125 C 23.914062 -62.664062 24.601562 -62.363281 25.21875 -61.90625 C 25.726562 -61.539062 26.289062 -60.953125 26.90625 -60.140625 C 27 -60.035156 27.082031 -59.921875 27.15625 -59.796875 C 27.238281 -59.671875 27.304688 -59.554688 27.359375 -59.453125 L 21.703125 -59.453125 C 21.910156 -59.148438 22.101562 -58.832031 22.28125 -58.5 C 22.457031 -58.164062 22.644531 -57.796875 22.84375 -57.390625 L 24.84375 -53.953125 L 29.1875 -53.953125 L 31.328125 -50.140625 L 26.59375 -50.140625 L 29.734375 -44.625 L 35 -44.625 L 42.953125 -30.5 L 44.546875 -30.5 L 45.546875 -28.65625 L 40.578125 -28.65625 L 45.625 -19.640625 L 43.328125 -19.640625 L 46.234375 -14.4375 C 46.335938 -14.289062 46.414062 -14.21875 46.46875 -14.21875 L 46.84375 -14.21875 C 46.84375 -14.269531 46.84375 -14.296875 46.84375 -14.296875 C 46.84375 -14.296875 46.84375 -14.320312 46.84375 -14.375 L 46.84375 -19.640625 L 49.140625 -19.640625 L 49.140625 -28.65625 L 48.53125 -28.65625 L 48.53125 -30.5 L 52.578125 -30.5 L 52.578125 -44.625 L 41.03125 -44.625 L 41.03125 -50.140625 L 51.96875 -50.140625 L 51.96875 -53.953125 L 47.609375 -53.953125 L 47.609375 -59.453125 L 53.265625 -59.453125 L 53.265625 -60.296875 C 53.265625 -61.515625 53.546875 -62.265625 54.109375 -62.546875 C 54.671875 -62.828125 55.101562 -62.96875 55.40625 -62.96875 L 62.203125 -62.96875 C 62.566406 -62.96875 63.015625 -62.828125 63.546875 -62.546875 C 64.078125 -62.265625 64.34375 -61.515625 64.34375 -60.296875 L 64.34375 -59.453125 L 58.6875 -59.453125 L 58.6875 -53.953125 L 66.71875 -53.953125 Z M 39.734375 -57.15625 L 39.734375 -58.15625 L 28.578125 -58.15625 L 28.578125 -57.15625 Z M 34.15625 -8.859375 L 34.15625 -9.703125 L 23.46875 -9.703125 L 23.46875 -8.859375 Z M 45.921875 -51.8125 L 45.921875 -52.65625 L 35.234375 -52.65625 L 35.234375 -51.8125 Z M 45.921875 -51.8125 "/></g></g></g><g fill="#000000" fill-opacity="1"><g transform="translate(263.808917, 238.079099)"><g><path d="M 58.3125 -2.0625 C 58.3125 -2.007812 58.3125 -1.929688 58.3125 -1.828125 C 58.3125 -1.734375 58.3125 -1.632812 58.3125 -1.53125 C 58.207031 -0.457031 57.617188 0.078125 56.546875 0.078125 L 48.21875 0.078125 C 47.5625 0.078125 47.03125 -0.0703125 46.625 -0.375 C 46.46875 -0.476562 46.320312 -0.628906 46.1875 -0.828125 C 46.0625 -1.035156 45.925781 -1.242188 45.78125 -1.453125 L 45.46875 -2.0625 L 41.5 -2.0625 L 38.59375 -7.1875 L 43.71875 -7.1875 L 42.796875 -8.859375 L 38.75 -8.859375 L 34.3125 -16.65625 L 37.21875 -16.65625 L 34.3125 -21.703125 L 29.5 -21.703125 L 29.046875 -22.390625 C 28.222656 -23.921875 27.378906 -24.914062 26.515625 -25.375 C 25.703125 -25.882812 24.328125 -26.140625 22.390625 -26.140625 L 14.671875 -26.140625 L 14.671875 -21.703125 L 19.5625 -21.703125 L 19.5625 -16.65625 L 15.75 -16.65625 L 15.75 -8.859375 L 27.96875 -8.859375 L 27.96875 -7.1875 L 15.59375 -7.1875 L 15.59375 -2.59375 C 15.59375 -2.539062 15.578125 -2.460938 15.546875 -2.359375 C 15.523438 -2.265625 15.515625 -2.164062 15.515625 -2.0625 L 19.484375 -2.0625 C 19.378906 -1.144531 19.070312 -0.554688 18.5625 -0.296875 C 18.0625 -0.046875 17.65625 0.078125 17.34375 0.078125 L 10.390625 0.078125 C 10.085938 0.078125 9.679688 -0.046875 9.171875 -0.296875 C 8.660156 -0.554688 8.351562 -1.144531 8.25 -2.0625 L 4.28125 -2.0625 C 4.28125 -2.164062 4.265625 -2.265625 4.234375 -2.359375 C 4.210938 -2.460938 4.203125 -2.539062 4.203125 -2.59375 L 4.203125 -7.1875 L 6.875 -7.1875 L 6.875 -8.859375 L 4.359375 -8.859375 L 4.359375 -16.65625 L 8.25 -16.65625 L 8.25 -21.703125 L 3.359375 -21.703125 L 3.359375 -30.03125 L 8.71875 -30.03125 L 8.71875 -31.71875 L 4.125 -31.71875 L 4.125 -44.703125 L 5.65625 -44.703125 L 5.65625 -49.75 L 8.71875 -49.75 L 8.71875 -53.265625 L 4.578125 -53.265625 L 4.578125 -58.390625 L 8.171875 -58.390625 L 8.171875 -60.296875 C 8.171875 -61.515625 8.460938 -62.265625 9.046875 -62.546875 C 9.640625 -62.828125 10.085938 -62.96875 10.390625 -62.96875 L 17.421875 -62.96875 C 17.722656 -62.96875 18.15625 -62.828125 18.71875 -62.546875 C 19.28125 -62.265625 19.5625 -61.515625 19.5625 -60.296875 L 19.5625 -58.390625 L 15.890625 -58.390625 L 15.890625 -53.265625 L 20.015625 -53.265625 L 20.015625 -49.75 L 21.09375 -49.75 L 21.09375 -44.703125 L 15.4375 -44.703125 L 15.4375 -37.453125 L 22.46875 -37.453125 C 22.976562 -37.453125 23.4375 -37.460938 23.84375 -37.484375 C 24.25 -37.503906 24.628906 -37.539062 24.984375 -37.59375 C 25.648438 -37.695312 26.160156 -37.851562 26.515625 -38.0625 C 27.023438 -38.3125 27.429688 -38.664062 27.734375 -39.125 C 27.992188 -39.382812 28.222656 -39.675781 28.421875 -40 C 28.628906 -40.332031 28.835938 -40.675781 29.046875 -41.03125 L 31.109375 -44.703125 L 33.25 -44.703125 L 36.140625 -49.75 L 38.59375 -49.75 L 40.578125 -53.265625 L 36.453125 -53.265625 L 39.28125 -58.390625 L 42.953125 -58.390625 L 44.703125 -61.4375 C 44.910156 -61.84375 45.191406 -62.203125 45.546875 -62.515625 C 45.847656 -62.816406 46.410156 -62.96875 47.234375 -62.96875 L 54.796875 -62.96875 C 55.710938 -62.96875 56.296875 -62.535156 56.546875 -61.671875 C 56.648438 -61.003906 56.578125 -60.394531 56.328125 -59.84375 L 55.484375 -58.390625 L 51.8125 -58.390625 L 48.90625 -53.265625 L 53.03125 -53.265625 L 51.046875 -49.75 L 48.6875 -49.75 L 45.78125 -44.703125 L 43.640625 -44.703125 L 39.65625 -37.671875 C 38.894531 -36.398438 38.207031 -35.253906 37.59375 -34.234375 C 37.039062 -33.421875 36.535156 -32.757812 36.078125 -32.25 C 36.171875 -32.195312 36.269531 -32.117188 36.375 -32.015625 C 36.476562 -31.921875 36.582031 -31.820312 36.6875 -31.71875 L 48.375 -31.71875 C 48.625 -31.457031 48.875 -31.1875 49.125 -30.90625 C 49.382812 -30.632812 49.617188 -30.34375 49.828125 -30.03125 L 37.375 -30.03125 C 37.78125 -29.46875 38.195312 -28.867188 38.625 -28.234375 C 39.0625 -27.597656 39.484375 -26.925781 39.890625 -26.21875 L 42.484375 -21.703125 L 47.375 -21.703125 L 50.28125 -16.65625 L 47.375 -16.65625 L 51.890625 -8.859375 L 55.9375 -8.859375 L 56.9375 -7.1875 L 51.8125 -7.1875 L 54.03125 -3.28125 C 54.132812 -3.132812 54.195312 -2.957031 54.21875 -2.75 C 54.25 -2.550781 54.289062 -2.320312 54.34375 -2.0625 Z M 32.09375 -55.09375 L 32.09375 -56.09375 L 20.9375 -56.09375 L 20.9375 -55.09375 Z M 28.96875 -19.71875 L 28.96875 -20.703125 L 21.546875 -20.703125 L 21.546875 -19.71875 Z M 37.0625 -2.75 L 37.0625 -3.515625 L 26.359375 -3.515625 L 26.359375 -2.75 Z M 37.0625 -2.75 "/></g></g></g></svg>